<svg width="1055" height="1054" xmlns="http://www.w3.org/2000/svg" xmlns:xlink="http://www.w3.org/1999/xlink" xml:space="preserve" overflow="hidden"><g transform="translate(-1083 -893)"><path d="M1085.5 1420C1085.5 1130.33 1320.55 895.5 1610.5 895.5 1900.45 895.5 2135.5 1130.33 2135.5 1420 2135.5 1709.67 1900.45 1944.5 1610.5 1944.5 1320.55 1944.5 1085.5 1709.67 1085.5 1420Z" stroke="#0D2155" stroke-width="4.58333" stroke-miterlimit="8" fill="#0672CB" fill-rule="evenodd"/><rect x="1284" y="1094" width="244" height="243" fill="#37CC5C"/><rect x="1692" y="1502" width="244" height="244" fill="#8E5CEF"/><path d="M1692 1665 1504.5 1665C1425.25 1665 1361 1600.75 1361 1521.5L1361 1419 1320 1419 1402 1337 1484 1419 1443 1419 1443 1521.5C1443 1555.47 1470.53 1583 1504.5 1583L1692 1583Z" fill="#FFFFFF" fill-rule="evenodd"/><path d="M1528 1173 1716.06 1173C1795.07 1173 1859.12 1237.05 1859.12 1316.06L1859.12 1418.25 1900 1418.25 1818.25 1500 1736.5 1418.25 1777.38 1418.25 1777.38 1316.06C1777.38 1282.2 1749.92 1254.75 1716.06 1254.75L1528 1254.75Z" fill="#FFFFFF" fill-rule="evenodd"/></g></svg>